
<svg id="Capa_1" data-name="Capa 1" xmlns="http://www.w3.org/2000/svg" viewBox="0 0 495.7 92.2"><defs><style>.cls-1{fill:#e84241;}</style></defs><title>kavehome-logo</title><polygon class="cls-1" points="131.1 61.1 131.1 81.8 121 81.8 121 31.4 131.1 31.4 131.1 51.8 135.8 51.8 152.5 31.4 165.1 31.4 144 56 166.7 81.8 153.6 81.8 135.7 61.1 131.1 61.1"/><path class="cls-1" d="M173.6,64.3c0,5.3,3.5,9.6,9,9.6s9-4.1,9-9.6-3.6-9.6-9-9.6-9,4.3-9,9.6m17.7,17.5V78a12.94,12.94,0,0,1-10.4,4.8c-9.7,0-16.9-7.9-16.9-18.4S171.2,46,180.9,46a12.52,12.52,0,0,1,10.4,4.8V46.9h9.2V81.8Z"/><polygon class="cls-1" points="217 81.8 203.2 46.9 213.4 46.9 222.4 71.9 231.5 46.9 241.4 46.9 227.8 81.8 217 81.8"/><path class="cls-1" d="M250.7,61.1h15.4c-.9-4.5-3.5-7-7.6-7-4.4,0-7,2.6-7.8,7m24.9,3.2a30.48,30.48,0,0,1-.2,3.2H250.7c.9,5,4.5,7.2,9,7.2a14.14,14.14,0,0,0,8.8-3.3l5.5,6.1c-4,3.6-9,5.3-14.9,5.3-10.7,0-18.1-7.3-18.1-18.3S248.2,46,258.6,46c10.1,0,17,7.4,17,18.3"/><polygon class="cls-1" points="336.7 51.9 336.7 31.8 346.6 31.8 346.6 81.6 336.7 81.6 336.7 61.1 312.7 61.1 312.7 81.6 302.8 81.6 302.8 31.8 312.7 31.8 312.7 51.9 336.7 51.9"/><path class="cls-1" d="M361.6,64.3c0,5.6,3.9,9.5,9.1,9.5s9.2-3.9,9.2-9.5-3.9-9.5-9.2-9.5-9.1,4-9.1,9.5m27.8,0c0,10.4-7.9,18.1-18.7,18.1s-18.6-7.7-18.6-18.1,7.9-18.1,18.6-18.1,18.7,7.8,18.7,18.1"/><path class="cls-1" d="M449.9,59.6V81.5h-9.2v-19c0-5-2.5-7.7-6.7-7.7-4,0-7.3,2.6-7.3,7.8V81.5h-9.3v-19c0-5-2.5-7.7-6.7-7.7-4,0-7.3,2.6-7.3,7.8V81.5h-9.3V47h9v4.1c2.5-3.7,6.2-5,10.1-5,5,0,9.1,2.2,11.4,5.9,2.7-4.4,7.2-5.9,11.7-5.9,8.2.1,13.6,5.5,13.6,13.5"/><path class="cls-1" d="M464,61.1h15.3c-.9-4.4-3.5-6.9-7.5-6.9-4.4,0-7,2.6-7.8,6.9m24.6,3.2a26.89,26.89,0,0,1-.2,3.1H464c.9,5,4.5,7.1,8.9,7.1a13.88,13.88,0,0,0,8.7-3.3l5.4,6c-3.9,3.6-8.8,5.2-14.7,5.2-10.5,0-17.9-7.2-17.9-18s7.1-18.2,17.4-18.2c10,0,16.8,7.4,16.8,18.1"/><path class="cls-1" d="M84.3,50.2v5L10.7,75.5V50.1a36.8,36.8,0,0,1,73.6.1m0,14.1V81.4h-62ZM79.8,18a45.63,45.63,0,0,0-64.4,0A45.24,45.24,0,0,0,2,50.2V90.3H93.2V50.2A45.66,45.66,0,0,0,79.8,18"/></svg>